<svg id="Layer_1" data-name="Layer 1" xmlns="http://www.w3.org/2000/svg" viewBox="0 0 11.01 7.84"><defs><style>.cls-1{fill:#fff;}</style></defs><title>email template.ai</title><path class="cls-1" d="M11,.79s0,0,0,0L7.65,4,11,7.12s0,0,0-.07V.79Z"/><path class="cls-1" d="M7.14,4.49,5.76,5.81a.35.35,0,0,1-.24.1.39.39,0,0,1-.25-.1L3.9,4.54.53,7.79a.75.75,0,0,0,.26,0h9.45a.8.8,0,0,0,.38-.1Z"/><path class="cls-1" d="M5.51,5.05,10.64.12a.78.78,0,0,0-.4-.12H.79a.8.8,0,0,0-.5.18Z"/><path class="cls-1" d="M0,.91V7.05a1.52,1.52,0,0,0,0,.21L3.37,4.05Z"/></svg>