<svg id="Layer_1" data-name="Layer 1" xmlns="http://www.w3.org/2000/svg" viewBox="0 0 34 34"><defs><style>.cls-1{fill:#231f20;}</style></defs><title>material design Fundtastic</title><path class="cls-1" d="M22.75,5.5h-3c-3.35,0-5.52,2.22-5.52,5.66v2.61h-3a.47.47,0,0,0-.47.47V18a.47.47,0,0,0,.47.47h3V28a.47.47,0,0,0,.47.47h3.91A.47.47,0,0,0,19.1,28V18.49h3.51a.47.47,0,0,0,.47-.47V14.24a.45.45,0,0,0-.14-.33.47.47,0,0,0-.33-.14H19.1V11.56c0-1.07.25-1.61,1.64-1.61h2a.47.47,0,0,0,.47-.47V6A.48.48,0,0,0,22.75,5.5Z"/></svg>