<svg xmlns="http://www.w3.org/2000/svg" xmlns:xlink="http://www.w3.org/1999/xlink" viewBox="0 0 138.13 25.96"><defs><style>.cls-1{mask:url(#mask);filter:url(#luminosity-noclip-3);}.cls-11,.cls-2,.cls-4,.cls-9{mix-blend-mode:multiply;}.cls-2{fill:url(#linear-gradient);}.cls-3{mask:url(#mask-2);filter:url(#luminosity-noclip-4);}.cls-4{fill:url(#linear-gradient-2);}.cls-5{isolation:isolate;}.cls-6{fill:#fff;}.cls-7{fill:#10cfc9;}.cls-8{mask:url(#mask-3);}.cls-9{fill:url(#linear-gradient-3);}.cls-10{mask:url(#mask-4);}.cls-11{fill:url(#linear-gradient-4);}.cls-12{filter:url(#luminosity-noclip-2);}.cls-13{filter:url(#luminosity-noclip);}</style><filter id="luminosity-noclip" x="42.01" y="-8981.85" width="3.34" height="32766" filterUnits="userSpaceOnUse" color-interpolation-filters="sRGB"><feFlood flood-color="#fff" result="bg"/><feBlend in="SourceGraphic" in2="bg"/></filter><mask id="mask" x="42.01" y="-8981.85" width="3.34" height="32766" maskUnits="userSpaceOnUse"><g class="cls-13"/></mask><linearGradient id="linear-gradient" x1="43.67" y1="12.64" x2="43.67" y2="1.98" gradientUnits="userSpaceOnUse"><stop offset="0"/><stop offset="1" stop-color="#fff"/></linearGradient><filter id="luminosity-noclip-2" x="31.68" y="-8981.85" width="10.44" height="32766" filterUnits="userSpaceOnUse" color-interpolation-filters="sRGB"><feFlood flood-color="#fff" result="bg"/><feBlend in="SourceGraphic" in2="bg"/></filter><mask id="mask-2" x="31.68" y="-8981.85" width="10.44" height="32766" maskUnits="userSpaceOnUse"><g class="cls-12"/></mask><linearGradient id="linear-gradient-2" x1="649.29" y1="-683.42" x2="649.29" y2="-695.01" gradientTransform="translate(-162.69 932.3) rotate(-31.4)" xlink:href="#linear-gradient"/><filter id="luminosity-noclip-3" x="42.01" y="3.38" width="3.34" height="18.53" filterUnits="userSpaceOnUse" color-interpolation-filters="sRGB"><feFlood flood-color="#fff" result="bg"/><feBlend in="SourceGraphic" in2="bg"/></filter><mask id="mask-3" x="42.01" y="3.38" width="3.34" height="18.53" maskUnits="userSpaceOnUse"><g class="cls-1"><rect class="cls-2" x="42.01" y="3.38" width="3.34" height="18.53"/></g></mask><linearGradient id="linear-gradient-3" x1="43.67" y1="12.64" x2="43.67" y2="1.98" gradientUnits="userSpaceOnUse"><stop offset="0" stop-color="#fff"/><stop offset="1"/></linearGradient><filter id="luminosity-noclip-4" x="31.68" y="1.17" width="10.44" height="18.96" filterUnits="userSpaceOnUse" color-interpolation-filters="sRGB"><feFlood flood-color="#fff" result="bg"/><feBlend in="SourceGraphic" in2="bg"/></filter><mask id="mask-4" x="31.68" y="1.17" width="10.44" height="18.96" maskUnits="userSpaceOnUse"><g class="cls-3"><polygon class="cls-4" points="42.12 18.39 39.27 20.13 31.75 7.8 31.68 1.17 42.12 18.39"/></g></mask><linearGradient id="linear-gradient-4" x1="649.29" y1="-683.42" x2="649.29" y2="-695.01" gradientTransform="translate(-162.69 932.3) rotate(-31.4)" xlink:href="#linear-gradient-3"/></defs><title>email template.ai</title><g class="cls-5"><g id="Layer_1" data-name="Layer 1"><path class="cls-6" d="M71.67,9.17H70.56a3,3,0,0,1-1.62-.35,1.16,1.16,0,0,1-.52-1A1.18,1.18,0,0,1,69,6.71a3,3,0,0,1,1.61-.35H75.8a3,3,0,0,1,1.6.35,1.18,1.18,0,0,1,.54,1.07,1.17,1.17,0,0,1-.53,1,3,3,0,0,1-1.61.35H74.68v8.44a2.76,2.76,0,0,1-.37,1.6,1.29,1.29,0,0,1-1.14.53A1.27,1.27,0,0,1,72,19.21a2.76,2.76,0,0,1-.37-1.6Z"/><path class="cls-6" d="M82.78,17.09l-.45,1.33a2.43,2.43,0,0,1-.59,1,1.2,1.2,0,0,1-.85.35,1.39,1.39,0,0,1-1-.42,1.45,1.45,0,0,1-.4-1,2.35,2.35,0,0,1,0-.47,1.68,1.68,0,0,1,.11-.4L83,8.12A3.46,3.46,0,0,1,84,6.64a2.23,2.23,0,0,1,2.71,0,2.86,2.86,0,0,1,.88,1.3l3.35,9.5c.06.2.11.38.15.53a2.37,2.37,0,0,1,0,.42,1.33,1.33,0,0,1-.42,1,1.48,1.48,0,0,1-1.07.4,1.34,1.34,0,0,1-1-.37,2.44,2.44,0,0,1-.61-1.1l-.37-1.23Zm.86-2.78H86.8l-1.53-4.9Z"/><path class="cls-6" d="M103.91,15.48a4.06,4.06,0,0,1-1.41,3.22,5.46,5.46,0,0,1-3.72,1.23,6.67,6.67,0,0,1-3-.63c-.83-.43-1.25-.92-1.25-1.49a1.26,1.26,0,0,1,.4-1A1.53,1.53,0,0,1,96,16.46a6.45,6.45,0,0,1,1.41.33,6.34,6.34,0,0,0,1.8.34,1.52,1.52,0,0,0,1.31-.68.9.9,0,0,0,.16-.41,1.33,1.33,0,0,0-.42-1.28,5.5,5.5,0,0,0-1.87-.82,6.74,6.74,0,0,1-2.9-1.47,3.12,3.12,0,0,1-.83-2.28,3.84,3.84,0,0,1,1.33-3A5.06,5.06,0,0,1,99.46,6a5.33,5.33,0,0,1,2.58.55,1.63,1.63,0,0,1,1,1.4,1.24,1.24,0,0,1-.36.94,1.41,1.41,0,0,1-1,.34A5,5,0,0,1,100.55,9a4.59,4.59,0,0,0-1.2-.24,1.81,1.81,0,0,0-1,.24,1.1,1.1,0,0,0-.22.21c-.66.85-.16,1.53,1.48,2l.63.2a6.39,6.39,0,0,1,2.77,1.6A3.48,3.48,0,0,1,103.91,15.48Z"/><path class="cls-6" d="M110.14,9.17H109a3,3,0,0,1-1.61-.35,1.15,1.15,0,0,1-.53-1,1.2,1.2,0,0,1,.53-1.07A3,3,0,0,1,109,6.36h5.24a3,3,0,0,1,1.61.35,1.2,1.2,0,0,1,.53,1.07,1.17,1.17,0,0,1-.53,1,3,3,0,0,1-1.61.35h-1.12v8.44a2.76,2.76,0,0,1-.37,1.6,1.48,1.48,0,0,1-2.27,0,2.76,2.76,0,0,1-.37-1.6Z"/><path class="cls-6" d="M123.27,17.61a2.76,2.76,0,0,1-.37,1.6,1.48,1.48,0,0,1-2.27,0,2.76,2.76,0,0,1-.37-1.6V8.33a2.8,2.8,0,0,1,.37-1.61,1.48,1.48,0,0,1,2.27,0,2.8,2.8,0,0,1,.37,1.61Z"/><path class="cls-6" d="M134,20a6.1,6.1,0,0,1-4.69-1.92A7.15,7.15,0,0,1,127.49,13a7.06,7.06,0,0,1,1.84-5A6.16,6.16,0,0,1,134,6a5.78,5.78,0,0,1,2.81.63c.77.43,1.15.92,1.15,1.48a1.39,1.39,0,0,1-.38,1,1.21,1.21,0,0,1-.9.4,5.31,5.31,0,0,1-1.18-.25A5.18,5.18,0,0,0,134,9a2.88,2.88,0,0,0-2.37,1.11,4.67,4.67,0,0,0-.88,3,4.41,4.41,0,0,0,.9,2.92,3,3,0,0,0,2.44,1.08,4.6,4.6,0,0,0,1.61-.35,4.94,4.94,0,0,1,1.2-.34,1.15,1.15,0,0,1,.84.4,1.32,1.32,0,0,1,.37.92,1.92,1.92,0,0,1-1.2,1.61A6,6,0,0,1,134,20Z"/><path class="cls-6" d="M43.14.13A1.7,1.7,0,0,0,42,1.77v16.5L31.47.81a1.68,1.68,0,1,0-2.88,1.74L42.22,25.14a1.65,1.65,0,0,0,1.12.78h0a1.15,1.15,0,0,0,.26,0h0l.13,0h.11a1.68,1.68,0,0,0,1.44-1.66V1.73A1.69,1.69,0,0,0,43.14.13Z"/><path class="cls-6" d="M62.14,4A11.41,11.41,0,0,0,53,0h-9.3L42,3.38H53a7.87,7.87,0,0,1,6.46,2.81,10.45,10.45,0,0,1,2.2,6.89,9.8,9.8,0,0,1-2.21,6.65A7.8,7.8,0,0,1,53,22.57H49.4V25.9H53A11.4,11.4,0,0,0,62.14,22a13,13,0,0,0,3.08-8.89A13.53,13.53,0,0,0,62.14,4Z"/><path class="cls-6" d="M1.68,25.9a1.69,1.69,0,0,1-1.16-.43A1.74,1.74,0,0,1,0,24.19V3.79A3.85,3.85,0,0,1,.9,1.2,3.54,3.54,0,0,1,3.72,0H14.8A1.81,1.81,0,0,1,16,.43a1.59,1.59,0,0,1,.49,1.16,1.53,1.53,0,0,1-.46,1.1,1.73,1.73,0,0,1-1.26.49H4.07a.66.66,0,0,0-.55.2.82.82,0,0,0-.15.53v6.57h6.78a1.76,1.76,0,0,1,1.23.43A1.55,1.55,0,0,1,11.87,12a1.53,1.53,0,0,1-.46,1.1,1.74,1.74,0,0,1-1.26.49H3.37V24.19A1.67,1.67,0,0,1,1.68,25.9Z"/><path class="cls-6" d="M47.74,24.55a1.68,1.68,0,1,1,1.32,1.32A1.68,1.68,0,0,1,47.74,24.55Z"/><path class="cls-7" d="M26.59,15.49A4.15,4.15,0,1,1,23.2,12.1,4.15,4.15,0,0,1,26.59,15.49Z"/><path class="cls-7" d="M22.51,25.91a8.74,8.74,0,0,1-7.06-3,9.58,9.58,0,0,1-2.2-6.41V8.2A1.72,1.72,0,0,1,13.74,7a1.75,1.75,0,0,1,1.2-.46A1.71,1.71,0,0,1,16,6.86l0,0a1.71,1.71,0,0,1,.55,1.31v8.35A6.52,6.52,0,0,0,18,20.83a5.5,5.5,0,0,0,4.52,1.91A5.38,5.38,0,0,0,27,20.83a6.47,6.47,0,0,0,1.38-4.28v-15A1.54,1.54,0,0,1,28.9.37l0,0,0,0A1.91,1.91,0,0,1,30.06,0a1.65,1.65,0,0,1,1.1.41,1.43,1.43,0,0,1,.58,1.21v14.9a9.58,9.58,0,0,1-2.2,6.41A8.69,8.69,0,0,1,22.51,25.91Z"/><g class="cls-8"><rect class="cls-9" x="42.01" y="3.38" width="3.34" height="18.53"/></g><g class="cls-10"><polygon class="cls-11" points="42.12 18.39 39.27 20.13 31.75 7.8 31.68 1.17 42.12 18.39"/></g></g></g></svg>