<svg id="Layer_1" data-name="Layer 1" xmlns="http://www.w3.org/2000/svg" viewBox="0 0 34 34"><defs><style>.cls-1{fill:#231f20;}</style></defs><title>material design Fundtastic</title><path class="cls-1" d="M10.52,5.87a2.89,2.89,0,0,0-2.85,0l10.48,9.66L21.67,12Z"/><path class="cls-1" d="M6.62,6.86a2.75,2.75,0,0,0-.4,1.41V25.73a2.71,2.71,0,0,0,.37,1.37L17.13,16.56Z"/><path class="cls-1" d="M26.34,14.6,23,12.74l-3.77,3.78,4.62,4.26,2.51-1.38a2.72,2.72,0,0,0,0-4.8Z"/><path class="cls-1" d="M18.19,17.53,7.62,28.1a3,3,0,0,0,1.47.4,2.93,2.93,0,0,0,1.43-.37l12-6.62Z"/></svg>