<svg id="Layer_1" data-name="Layer 1" xmlns="http://www.w3.org/2000/svg" viewBox="0 0 7.84 7.84"><defs><style>.cls-1{fill:#fff;}</style></defs><title>email template.ai</title><path class="cls-1" d="M6.69,0H1.15A1.16,1.16,0,0,0,0,1.15V6.69A1.15,1.15,0,0,0,1.15,7.84H6.69A1.14,1.14,0,0,0,7.84,6.69V1.15A1.15,1.15,0,0,0,6.69,0Zm.13,6.24a.29.29,0,0,1-.31.31A5.22,5.22,0,0,1,1.3,1.33.29.29,0,0,1,1.6,1H2.68a.29.29,0,0,1,.3.31,3.49,3.49,0,0,0,.19,1.1.39.39,0,0,1-.06.31l-.71.68a4.77,4.77,0,0,0,2,2l.67-.67a.23.23,0,0,1,.31-.06,3.25,3.25,0,0,0,1.1.18.29.29,0,0,1,.31.31Z"/></svg>