<svg id="Layer_1" data-name="Layer 1" xmlns="http://www.w3.org/2000/svg" viewBox="0 0 34 34"><defs><style>.cls-1{fill:#231f20;}</style></defs><title>material design Fundtastic</title><path class="cls-1" d="M22.15,5.5H11.85A6.36,6.36,0,0,0,5.5,11.85v10.3a6.36,6.36,0,0,0,6.35,6.35h10.3a6.36,6.36,0,0,0,6.35-6.35V11.85A6.36,6.36,0,0,0,22.15,5.5Zm4.31,16.65a4.31,4.31,0,0,1-4.31,4.31H11.85a4.31,4.31,0,0,1-4.31-4.31V11.85a4.31,4.31,0,0,1,4.31-4.31h10.3a4.31,4.31,0,0,1,4.31,4.31v10.3Z"/><path class="cls-1" d="M17,11.07A5.93,5.93,0,1,0,22.93,17,5.94,5.94,0,0,0,17,11.07Zm0,9.82A3.89,3.89,0,1,1,20.89,17,3.9,3.9,0,0,1,17,20.89Z"/><path class="cls-1" d="M23.18,9.34a1.5,1.5,0,0,0-1.06.44,1.5,1.5,0,0,0,0,2.12,1.48,1.48,0,0,0,2.11,0,1.5,1.5,0,0,0,0-2.12A1.48,1.48,0,0,0,23.18,9.34Z"/></svg>