<svg id="Layer_1" data-name="Layer 1" xmlns="http://www.w3.org/2000/svg" viewBox="0 0 34 34"><defs><style>.cls-1{fill:#231f20;}</style></defs><title>material design Fundtastic</title><path id="LinkedIn" class="cls-1" d="M29,19.6v8.9H23.88V20.2c0-2.09-.75-3.51-2.62-3.51a2.82,2.82,0,0,0-2.64,1.89,3.4,3.4,0,0,0-.18,1.25V28.5H13.28s.07-14.06,0-15.52h5.16v2.2l0,.05h0v-.05a5.12,5.12,0,0,1,4.65-2.56C26.49,12.62,29,14.83,29,19.6ZM7.89,5.5a2.69,2.69,0,1,0-.07,5.36h0a2.69,2.69,0,1,0,0-5.36Zm-2.62,23h5.16V13H5.27Z"/></svg>