<svg id="Layer_1" data-name="Layer 1" xmlns="http://www.w3.org/2000/svg" viewBox="0 0 34 34"><defs><style>.cls-1{fill:#231f20;}</style></defs><title>material design Fundtastic</title><path class="cls-1" d="M15.41,20.71c-.61,3.17-1.34,6.2-3.53,7.79-.67-4.79,1-8.38,1.77-12.2-1.32-2.21.15-6.68,2.93-5.58,3.43,1.35-3,8.25,1.33,9.11,4.47.9,6.3-7.76,3.52-10.58-4-4.07-11.67-.09-10.72,5.73.23,1.43,1.7,1.86.58,3.82C8.73,18.23,8,16.21,8.06,13.51,8.22,9.1,12,6,15.85,5.58c4.83-.54,9.37,1.77,10,6.32.71,5.13-2.18,10.68-7.35,10.28C17.09,22.07,16.51,21.38,15.41,20.71Z"/></svg>