<svg id="Layer_1" data-name="Layer 1" xmlns="http://www.w3.org/2000/svg" viewBox="0 0 34 34"><defs><style>.cls-1{fill:#231f20;}</style></defs><title>material design Fundtastic</title><path class="cls-1" d="M31.16,8.22a11.64,11.64,0,0,1-3.34.92,5.87,5.87,0,0,0,2.56-3.22,11.59,11.59,0,0,1-3.7,1.41,5.81,5.81,0,0,0-9.89,5.3,16.45,16.45,0,0,1-12-6.07A5.7,5.7,0,0,0,4,9.48a5.81,5.81,0,0,0,2.58,4.83A5.87,5.87,0,0,1,4,13.59v.07a5.8,5.8,0,0,0,4.66,5.69,5.58,5.58,0,0,1-2.62.1,5.79,5.79,0,0,0,5.42,4A11.64,11.64,0,0,1,4.23,26a12.81,12.81,0,0,1-1.39-.08,16.44,16.44,0,0,0,8.91,2.61c10.68,0,16.52-8.85,16.52-16.53l0-.75A11.53,11.53,0,0,0,31.16,8.22Z"/></svg>